<?xml version="1.0" encoding="UTF-8" standalone="no"?>
<!-- Created with Inkscape (http://www.inkscape.org/) -->

<svg
   width="150mm"
   height="40.481998mm"
   viewBox="0 0 150 40.481998"
   version="1.1"
   id="svg1"
   inkscape:version="1.3.2 (091e20e, 2023-11-25, custom)"
   sodipodi:docname="LogoMetis.svg"
   inkscape:export-filename="owl.png"
   inkscape:export-xdpi="96"
   inkscape:export-ydpi="96"
   xmlns:inkscape="http://www.inkscape.org/namespaces/inkscape"
   xmlns:sodipodi="http://sodipodi.sourceforge.net/DTD/sodipodi-0.dtd"
   xmlns="http://www.w3.org/2000/svg"
   xmlns:svg="http://www.w3.org/2000/svg">
  <sodipodi:namedview
     id="namedview1"
     pagecolor="#ffffff"
     bordercolor="#000000"
     borderopacity="0.25"
     inkscape:showpageshadow="2"
     inkscape:pageopacity="0.0"
     inkscape:pagecheckerboard="0"
     inkscape:deskcolor="#d1d1d1"
     inkscape:document-units="mm"
     inkscape:zoom="1.0242632"
     inkscape:cx="365.62867"
     inkscape:cy="140.1007"
     inkscape:window-width="1920"
     inkscape:window-height="1009"
     inkscape:window-x="-8"
     inkscape:window-y="1072"
     inkscape:window-maximized="1"
     inkscape:current-layer="layer1" />
  <defs
     id="defs1">
    <clipPath
       clipPathUnits="userSpaceOnUse"
       id="clipPath5">
      <path
         d="M 0,500 H 500 V 0 H 0 Z"
         transform="translate(-136.4526,-395.61431)"
         id="path5" />
    </clipPath>
    <clipPath
       clipPathUnits="userSpaceOnUse"
       id="clipPath7">
      <path
         d="M 0,500 H 500 V 0 H 0 Z"
         transform="translate(-119.37111,-436.81791)"
         id="path7" />
    </clipPath>
    <clipPath
       clipPathUnits="userSpaceOnUse"
       id="clipPath9">
      <path
         d="M 0,500 H 500 V 0 H 0 Z"
         transform="translate(-119.5239,-338.19241)"
         id="path9" />
    </clipPath>
    <clipPath
       clipPathUnits="userSpaceOnUse"
       id="clipPath11">
      <path
         d="M 0,500 H 500 V 0 H 0 Z"
         transform="translate(-116.5747,-428.56691)"
         id="path11" />
    </clipPath>
    <clipPath
       clipPathUnits="userSpaceOnUse"
       id="clipPath13">
      <path
         d="M 0,500 H 500 V 0 H 0 Z"
         transform="translate(-116.5747,-428.56691)"
         id="path13" />
    </clipPath>
    <clipPath
       clipPathUnits="userSpaceOnUse"
       id="clipPath15">
      <path
         d="M 0,500 H 500 V 0 H 0 Z"
         transform="translate(-108.3105,-408.62601)"
         id="path15" />
    </clipPath>
    <clipPath
       clipPathUnits="userSpaceOnUse"
       id="clipPath17">
      <path
         d="M 0,500 H 500 V 0 H 0 Z"
         transform="translate(-116.5747,-428.56691)"
         id="path17" />
    </clipPath>
    <clipPath
       clipPathUnits="userSpaceOnUse"
       id="clipPath19">
      <path
         d="M 0,500 H 500 V 0 H 0 Z"
         transform="translate(-116.0029,-421.59911)"
         id="path19" />
    </clipPath>
    <clipPath
       clipPathUnits="userSpaceOnUse"
       id="clipPath21">
      <path
         d="M 0,500 H 500 V 0 H 0 Z"
         transform="translate(-100.04691,-428.56691)"
         id="path21" />
    </clipPath>
    <clipPath
       clipPathUnits="userSpaceOnUse"
       id="clipPath23">
      <path
         d="M 0,500 H 500 V 0 H 0 Z"
         transform="translate(-100.04691,-428.56691)"
         id="path23" />
    </clipPath>
    <clipPath
       clipPathUnits="userSpaceOnUse"
       id="clipPath25">
      <path
         d="M 0,500 H 500 V 0 H 0 Z"
         transform="translate(-108.3105,-408.62601)"
         id="path25" />
    </clipPath>
    <clipPath
       clipPathUnits="userSpaceOnUse"
       id="clipPath27">
      <path
         d="M 0,500 H 500 V 0 H 0 Z"
         transform="translate(-100.17681,-428.44381)"
         id="path27" />
    </clipPath>
    <clipPath
       clipPathUnits="userSpaceOnUse"
       id="clipPath29">
      <path
         d="M 0,500 H 500 V 0 H 0 Z"
         transform="translate(-100.6914,-421.47171)"
         id="path29" />
    </clipPath>
    <clipPath
       clipPathUnits="userSpaceOnUse"
       id="clipPath31">
      <path
         d="M 0,500 H 500 V 0 H 0 Z"
         transform="translate(-71.492702,-364.69191)"
         id="path31" />
    </clipPath>
    <clipPath
       clipPathUnits="userSpaceOnUse"
       id="clipPath33">
      <path
         d="M 0,500 H 500 V 0 H 0 Z"
         transform="translate(-68.677202,-402.12011)"
         id="path33" />
    </clipPath>
    <clipPath
       clipPathUnits="userSpaceOnUse"
       id="clipPath35">
      <path
         d="M 0,500 H 500 V 0 H 0 Z"
         transform="translate(-65.930201,-392.32031)"
         id="path35" />
    </clipPath>
    <clipPath
       clipPathUnits="userSpaceOnUse"
       id="clipPath37">
      <path
         d="M 0,500 H 500 V 0 H 0 Z"
         transform="translate(-74.864702,-397.04791)"
         id="path37" />
    </clipPath>
    <clipPath
       clipPathUnits="userSpaceOnUse"
       id="clipPath39">
      <path
         d="M 0,500 H 500 V 0 H 0 Z"
         transform="translate(-81.863305,-397.04791)"
         id="path39" />
    </clipPath>
    <clipPath
       clipPathUnits="userSpaceOnUse"
       id="clipPath41">
      <path
         d="M 0,500 H 500 V 0 H 0 Z"
         transform="translate(-88.8613,-397.04791)"
         id="path41" />
    </clipPath>
    <clipPath
       clipPathUnits="userSpaceOnUse"
       id="clipPath43">
      <path
         d="M 0,500 H 500 V 0 H 0 Z"
         transform="translate(-67.161602,-387.87261)"
         id="path43" />
    </clipPath>
    <clipPath
       clipPathUnits="userSpaceOnUse"
       id="clipPath45">
      <path
         d="M 0,500 H 500 V 0 H 0 Z"
         transform="translate(-73.367202,-387.87261)"
         id="path45" />
    </clipPath>
    <clipPath
       clipPathUnits="userSpaceOnUse"
       id="clipPath47">
      <path
         d="M 0,500 H 500 V 0 H 0 Z"
         transform="translate(-79.468299,-387.87261)"
         id="path47" />
    </clipPath>
    <clipPath
       clipPathUnits="userSpaceOnUse"
       id="clipPath49">
      <path
         d="M 0,500 H 500 V 0 H 0 Z"
         transform="translate(-85.569805,-387.87261)"
         id="path49" />
    </clipPath>
    <clipPath
       clipPathUnits="userSpaceOnUse"
       id="clipPath51">
      <path
         d="M 0,500 H 500 V 0 H 0 Z"
         transform="translate(-91.670905,-387.87261)"
         id="path51" />
    </clipPath>
    <clipPath
       clipPathUnits="userSpaceOnUse"
       id="clipPath53">
      <path
         d="M 0,500 H 500 V 0 H 0 Z"
         transform="translate(-145.1289,-364.69191)"
         id="path53" />
    </clipPath>
    <clipPath
       clipPathUnits="userSpaceOnUse"
       id="clipPath55">
      <path
         d="M 0,500 H 500 V 0 H 0 Z"
         transform="translate(-147.94431,-402.12011)"
         id="path55" />
    </clipPath>
    <clipPath
       clipPathUnits="userSpaceOnUse"
       id="clipPath57">
      <path
         d="M 0,500 H 500 V 0 H 0 Z"
         transform="translate(-150.69141,-392.32031)"
         id="path57" />
    </clipPath>
    <clipPath
       clipPathUnits="userSpaceOnUse"
       id="clipPath59">
      <path
         d="M 0,500 H 500 V 0 H 0 Z"
         transform="translate(-141.75681,-397.04791)"
         id="path59" />
    </clipPath>
    <clipPath
       clipPathUnits="userSpaceOnUse"
       id="clipPath61">
      <path
         d="M 0,500 H 500 V 0 H 0 Z"
         transform="translate(-134.7583,-397.04791)"
         id="path61" />
    </clipPath>
    <clipPath
       clipPathUnits="userSpaceOnUse"
       id="clipPath63">
      <path
         d="M 0,500 H 500 V 0 H 0 Z"
         transform="translate(-127.76031,-397.04791)"
         id="path63" />
    </clipPath>
    <clipPath
       clipPathUnits="userSpaceOnUse"
       id="clipPath65">
      <path
         d="M 0,500 H 500 V 0 H 0 Z"
         transform="translate(-149.46,-387.87261)"
         id="path65" />
    </clipPath>
    <clipPath
       clipPathUnits="userSpaceOnUse"
       id="clipPath67">
      <path
         d="M 0,500 H 500 V 0 H 0 Z"
         transform="translate(-143.25441,-387.87261)"
         id="path67" />
    </clipPath>
    <clipPath
       clipPathUnits="userSpaceOnUse"
       id="clipPath69">
      <path
         d="M 0,500 H 500 V 0 H 0 Z"
         transform="translate(-137.15331,-387.87261)"
         id="path69" />
    </clipPath>
    <clipPath
       clipPathUnits="userSpaceOnUse"
       id="clipPath71">
      <path
         d="M 0,500 H 500 V 0 H 0 Z"
         transform="translate(-131.0518,-387.87261)"
         id="path71" />
    </clipPath>
    <clipPath
       clipPathUnits="userSpaceOnUse"
       id="clipPath73">
      <path
         d="M 0,500 H 500 V 0 H 0 Z"
         transform="translate(-124.95021,-387.87261)"
         id="path73" />
    </clipPath>
    <clipPath
       clipPathUnits="userSpaceOnUse"
       id="clipPath75">
      <path
         d="M 0,500 H 500 V 0 H 0 Z"
         transform="translate(-99.5137,-436.01121)"
         id="path75" />
    </clipPath>
    <clipPath
       clipPathUnits="userSpaceOnUse"
       id="clipPath77">
      <path
         d="M 0,500 H 500 V 0 H 0 Z"
         transform="translate(-103.5688,-436.92721)"
         id="path77" />
    </clipPath>
    <clipPath
       clipPathUnits="userSpaceOnUse"
       id="clipPath79">
      <path
         d="M 0,500 H 500 V 0 H 0 Z"
         transform="translate(-117.10791,-436.01121)"
         id="path79" />
    </clipPath>
    <clipPath
       clipPathUnits="userSpaceOnUse"
       id="clipPath81">
      <path
         d="M 0,500 H 500 V 0 H 0 Z"
         transform="translate(-113.0527,-436.92721)"
         id="path81" />
    </clipPath>
    <clipPath
       clipPathUnits="userSpaceOnUse"
       id="clipPath83">
      <path
         d="M 0,500 H 500 V 0 H 0 Z"
         transform="translate(-108.21,-437.27591)"
         id="path83" />
    </clipPath>
    <clipPath
       clipPathUnits="userSpaceOnUse"
       id="clipPath85">
      <path
         d="M 0,500 H 500 V 0 H 0 Z"
         transform="translate(-100.81101,-334.37061)"
         id="path85" />
    </clipPath>
  </defs>
  <g
     inkscape:label="Capa 1"
     inkscape:groupmode="layer"
     id="layer1">
    <path
       id="path8"
       d="M 0,0 -11.496,-11.295 -22.611,0.052 c -2.203,2.248 -3.4,5.028 -3.4,7.89 V 18.34 H 3.585 V 8.076 C 3.585,5.131 2.318,2.278 0,0 Z"
       style="fill:#ffffff;stroke:#f97316;stroke-width:4;stroke-linecap:butt;stroke-linejoin:miter;stroke-miterlimit:10;stroke-dasharray:none;stroke-opacity:1"
       transform="matrix(0.30280099,0,0,-0.30280099,20.185914,33.951197)"
       clip-path="url(#clipPath9)" />
    <path
       id="path2"
       d="m 15.180551,27.738021 v 4.96291"
       style="fill:#ffffff;stroke:#f97316;stroke-width:1.2112;stroke-linecap:butt;stroke-linejoin:miter;stroke-miterlimit:10;stroke-dasharray:none;stroke-opacity:1" />
    <path
       id="path3"
       d="m 18.400598,27.738021 v 4.96291"
       style="fill:#ffffff;stroke:#f97316;stroke-width:1.2112;stroke-linecap:butt;stroke-linejoin:miter;stroke-miterlimit:10;stroke-dasharray:none;stroke-opacity:1" />
    <path
       id="path4"
       d="M 0,0 V -19.568 C 0,-29.997 -8.454,-38.451 -18.883,-38.451 H -37.4 c -10.43,0 -18.884,8.454 -18.884,18.883 V 0"
       style="fill:#ffffff;fill-opacity:1;stroke:#f97316;stroke-width:4;stroke-linecap:butt;stroke-linejoin:miter;stroke-miterlimit:10;stroke-dasharray:none;stroke-opacity:1"
       transform="matrix(0.30236221,0,0,-0.32135527,25.299586,15.826884)"
       clip-path="url(#clipPath5)" />
    <path
       id="path6"
       d="m 0,0 h -22.121 c -9.434,0 -17.081,-7.647 -17.081,-17.081 v -20.551 h 56.284 v 20.551 C 17.082,-7.647 9.434,0 0,0 Z"
       style="fill:#ffffff;stroke:#f97316;stroke-width:4;stroke-linecap:butt;stroke-linejoin:miter;stroke-miterlimit:10;stroke-dasharray:none;stroke-opacity:1"
       transform="matrix(0.30280099,0,0,-0.30280099,20.139641,4.0872917)"
       clip-path="url(#clipPath7)" />
    <path
       id="path10"
       d="M 0,0 C -2.458,-2.456 -4.458,-5.367 -5.878,-8.591"
       style="fill:#ffffff;stroke:#f97316;stroke-width:4;stroke-linecap:butt;stroke-linejoin:miter;stroke-miterlimit:10;stroke-dasharray:none;stroke-opacity:1"
       transform="matrix(0.30280099,0,0,-0.30280099,19.292887,6.5857033)"
       clip-path="url(#clipPath11)" />
    <path
       id="path12"
       d="M 0,0 C 5.101,5.098 12.146,8.251 19.928,8.251"
       style="fill:none;stroke:#f97316;stroke-width:4;stroke-linecap:butt;stroke-linejoin:miter;stroke-miterlimit:10;stroke-dasharray:none;stroke-opacity:1"
       transform="matrix(0.30280099,0,0,-0.30280099,19.292887,6.5857033)"
       clip-path="url(#clipPath13)" />
    <path
       id="path14"
       d="M 0,0 C 0,4.039 0.856,7.876 2.386,11.35"
       style="fill:#ffffff;stroke:#f97316;stroke-width:4;stroke-linecap:butt;stroke-linejoin:miter;stroke-miterlimit:10;stroke-dasharray:none;stroke-opacity:1"
       transform="matrix(0.30280099,0,0,-0.30280099,16.790484,12.623831)"
       clip-path="url(#clipPath15)" />
    <path
       id="path16"
       d="m 0,0 c 0.317,0.044 0.639,0.075 0.968,0.075 3.889,0 7.042,-3.153 7.042,-7.043 0,-3.888 -3.153,-7.041 -7.042,-7.041 -3.329,0 -6.112,2.313 -6.846,5.418"
       style="fill:#ffffff;stroke:#f97316;stroke-width:4;stroke-linecap:butt;stroke-linejoin:miter;stroke-miterlimit:10;stroke-dasharray:none;stroke-opacity:1"
       transform="matrix(0.30280099,0,0,-0.30280099,19.292887,6.5857033)"
       clip-path="url(#clipPath17)" />
    <path
       id="path20"
       d="M 0,0 C 2.458,-2.456 4.458,-5.367 5.878,-8.591"
       style="fill:#ffffff;stroke:#f97316;stroke-width:4;stroke-linecap:butt;stroke-linejoin:miter;stroke-miterlimit:10;stroke-dasharray:none;stroke-opacity:1"
       transform="matrix(0.30280099,0,0,-0.30280099,14.288253,6.5857033)"
       clip-path="url(#clipPath21)" />
    <path
       id="path22"
       d="M 0,0 C -5.101,5.098 -12.146,8.251 -19.928,8.251"
       style="fill:#ffffff;stroke:#f97316;stroke-width:4;stroke-linecap:butt;stroke-linejoin:miter;stroke-miterlimit:10;stroke-dasharray:none;stroke-opacity:1"
       transform="matrix(0.30280099,0,0,-0.30280099,14.288253,6.5857033)"
       clip-path="url(#clipPath23)" />
    <path
       id="path24"
       d="M 0,0 C 0,4.039 -0.855,7.876 -2.386,11.35"
       style="fill:#ffffff;stroke:#f97316;stroke-width:4;stroke-linecap:butt;stroke-linejoin:miter;stroke-miterlimit:10;stroke-dasharray:none;stroke-opacity:1"
       transform="matrix(0.30280099,0,0,-0.30280099,16.790484,12.623831)"
       clip-path="url(#clipPath25)" />
    <path
       id="path26"
       d="m 0,0 c -0.317,0.046 -0.638,0.08 -0.967,0.082 -3.889,0.032 -7.068,-3.095 -7.099,-6.984 -0.033,-3.889 3.095,-7.068 6.983,-7.099 3.33,-0.027 6.132,2.263 6.891,5.362"
       style="fill:#ffffff;stroke:#f97316;stroke-width:4;stroke-linecap:butt;stroke-linejoin:miter;stroke-miterlimit:10;stroke-dasharray:none;stroke-opacity:1"
       transform="matrix(0.30280099,0,0,-0.30280099,14.32759,6.6229807)"
       clip-path="url(#clipPath27)" />
    <path
       id="path28"
       d="m 0,0 c -0.007,-0.851 -0.702,-1.534 -1.552,-1.527 -0.85,0.006 -1.534,0.702 -1.528,1.552 0.008,0.85 0.703,1.535 1.553,1.527 C -0.677,1.545 0.007,0.851 0,0"
       style="fill:#f97316;fill-opacity:1;fill-rule:nonzero;stroke:#f97316;stroke-opacity:1"
       transform="matrix(0.30280099,0,0,-0.30280099,14.483412,8.734138)"
       clip-path="url(#clipPath29)" />
    <path
       id="path30"
       d="m 0,0 h -5.116 v 31.143 c 0,6.627 5.372,12 12,12 h 8.582 c 5.337,0 9.664,-4.327 9.664,-9.664 V 25.13 C 25.13,11.251 13.879,0 0,0"
       style="fill:#ffffff;fill-opacity:1;fill-rule:nonzero;stroke:#f97316;stroke-width:4;stroke-linecap:butt;stroke-linejoin:miter;stroke-miterlimit:10;stroke-dasharray:none;stroke-opacity:1"
       transform="matrix(0.30280099,0,0,-0.30280099,5.642018,25.927117)"
       clip-path="url(#clipPath31)" />
    <path
       id="path32"
       d="M 0,0 H 26.424"
       style="fill:#ffffff;stroke:#f97316;stroke-width:2;stroke-linecap:butt;stroke-linejoin:miter;stroke-miterlimit:10;stroke-dasharray:none;stroke-opacity:1"
       transform="matrix(0.30280099,0,0,-0.30280099,4.7894782,14.593818)"
       clip-path="url(#clipPath33)" />
    <path
       id="path34"
       d="M 0,0 H 29.171"
       style="fill:#ffffff;stroke:#f97316;stroke-width:2;stroke-linecap:butt;stroke-linejoin:miter;stroke-miterlimit:10;stroke-dasharray:none;stroke-opacity:1"
       transform="matrix(0.30280099,0,0,-0.30280099,3.9576844,17.561214)"
       clip-path="url(#clipPath35)" />
    <path
       id="path36"
       d="m 0,0 c -0.007,-0.851 -0.702,-1.534 -1.552,-1.527 -0.851,0.006 -1.534,0.701 -1.528,1.552 0.007,0.85 0.703,1.534 1.553,1.527 C -0.677,1.545 0.007,0.85 0,0"
       style="fill:#ffffff;fill-opacity:1;fill-rule:nonzero;stroke:#f97316;stroke-opacity:1"
       transform="matrix(0.30280099,0,0,-0.30280099,6.6630573,16.129694)"
       clip-path="url(#clipPath37)" />
    <path
       id="path38"
       d="m 0,0 c -0.007,-0.851 -0.702,-1.534 -1.553,-1.527 -0.85,0.006 -1.534,0.701 -1.527,1.552 0.007,0.85 0.702,1.534 1.553,1.527 C -0.677,1.545 0.007,0.85 0,0"
       style="fill:#ffffff;fill-opacity:1;fill-rule:nonzero;stroke:#f97316;stroke-opacity:1"
       transform="matrix(0.30280099,0,0,-0.30280099,8.78224,16.129694)"
       clip-path="url(#clipPath39)" />
    <path
       id="path40"
       d="m 0,0 c -0.007,-0.851 -0.702,-1.534 -1.552,-1.527 -0.851,0.006 -1.534,0.701 -1.528,1.552 0.007,0.85 0.703,1.534 1.553,1.527 C -0.677,1.545 0.007,0.85 0,0"
       style="fill:#ffffff;fill-opacity:1;fill-rule:nonzero;stroke:#f97316;stroke-opacity:1"
       transform="matrix(0.30280099,0,0,-0.30280099,10.901242,16.129694)"
       clip-path="url(#clipPath41)" />
    <path
       id="path42"
       d="M 0,0 3.102,-3.009 6.206,0 9.309,-3.009 12.409,0 15.512,-3.009 18.616,0 21.721,-3.009 24.83,0 27.94,-3.009"
       style="fill:#ffffff;stroke:#f97316;stroke-width:2;stroke-linecap:butt;stroke-linejoin:miter;stroke-miterlimit:10;stroke-dasharray:none;stroke-opacity:1"
       transform="matrix(0.30280099,0,0,-0.30280099,4.3305531,18.907983)"
       clip-path="url(#clipPath43)" />
    <path
       id="path44"
       d="M 0,0 V -22.579"
       style="fill:#ffffff;stroke:#f97316;stroke-width:2;stroke-linecap:butt;stroke-linejoin:miter;stroke-miterlimit:10;stroke-dasharray:none;stroke-opacity:1"
       transform="matrix(0.30280099,0,0,-0.30280099,6.2096169,18.907983)"
       clip-path="url(#clipPath45)" />
    <path
       id="path46"
       d="M 0,0 V -22.579"
       style="fill:#ffffff;stroke:#f97316;stroke-width:2;stroke-linecap:butt;stroke-linejoin:miter;stroke-miterlimit:10;stroke-dasharray:none;stroke-opacity:1"
       transform="matrix(0.30280099,0,0,-0.30280099,8.057034,18.907983)"
       clip-path="url(#clipPath47)" />
    <path
       id="path48"
       d="M 0,0 V -18.306"
       style="fill:#ffffff;stroke:#f97316;stroke-width:2;stroke-linecap:butt;stroke-linejoin:miter;stroke-miterlimit:10;stroke-dasharray:none;stroke-opacity:1"
       transform="matrix(0.30280099,0,0,-0.30280099,9.9045712,18.907983)"
       clip-path="url(#clipPath49)" />
    <path
       id="path50"
       d="M 0,0 V -12.241"
       style="fill:#ffffff;stroke:#f97316;stroke-width:2;stroke-linecap:butt;stroke-linejoin:miter;stroke-miterlimit:10;stroke-dasharray:none;stroke-opacity:1"
       transform="matrix(0.30280099,0,0,-0.30280099,11.751997,18.907983)"
       clip-path="url(#clipPath51)" />
    <path
       id="path52"
       d="m 0,0 h 5.116 v 31.143 c 0,6.627 -5.373,12 -12,12 h -8.582 c -5.337,0 -9.664,-4.327 -9.664,-9.664 V 25.13 C -25.13,11.251 -13.879,0 0,0"
       style="fill:#ffffff;fill-opacity:1;fill-rule:nonzero;stroke:#f97316;stroke-width:4;stroke-linecap:butt;stroke-linejoin:miter;stroke-miterlimit:10;stroke-dasharray:none;stroke-opacity:1"
       transform="matrix(0.30280099,0,0,-0.30280099,27.93913,25.927117)"
       clip-path="url(#clipPath53)" />
    <path
       id="path54"
       d="M 0,0 H -26.424"
       style="fill:#ffffff;stroke:#f97316;stroke-width:2;stroke-linecap:butt;stroke-linejoin:miter;stroke-miterlimit:10;stroke-dasharray:none;stroke-opacity:1"
       transform="matrix(0.30280099,0,0,-0.30280099,28.791635,14.593818)"
       clip-path="url(#clipPath55)" />
    <path
       id="path56"
       d="M 0,0 H -29.171"
       style="fill:#ffffff;stroke:#f97316;stroke-width:2;stroke-linecap:butt;stroke-linejoin:miter;stroke-miterlimit:10;stroke-dasharray:none;stroke-opacity:1"
       transform="matrix(0.30280099,0,0,-0.30280099,29.623463,17.561214)"
       clip-path="url(#clipPath57)" />
    <path
       id="path58"
       d="M 0,0 C 0.007,-0.851 0.702,-1.534 1.552,-1.527 2.403,-1.521 3.086,-0.826 3.08,0.025 3.073,0.875 2.377,1.559 1.527,1.552 0.677,1.545 -0.007,0.85 0,0"
       style="fill:#ffffff;fill-opacity:1;fill-rule:nonzero;stroke:#f97316;stroke-opacity:1"
       transform="matrix(0.30280099,0,0,-0.30280099,26.918056,16.129694)"
       clip-path="url(#clipPath59)" />
    <path
       id="path60"
       d="M 0,0 C 0.007,-0.851 0.702,-1.534 1.553,-1.527 2.403,-1.521 3.087,-0.826 3.08,0.025 3.073,0.875 2.378,1.559 1.527,1.552 0.677,1.545 -0.007,0.85 0,0"
       style="fill:#ffffff;fill-opacity:1;fill-rule:nonzero;stroke:#f97316;stroke-opacity:1"
       transform="matrix(0.30280099,0,0,-0.30280099,24.798899,16.129694)"
       clip-path="url(#clipPath61)" />
    <path
       id="path62"
       d="M 0,0 C 0.007,-0.851 0.702,-1.534 1.552,-1.527 2.403,-1.521 3.086,-0.826 3.08,0.025 3.073,0.875 2.377,1.559 1.527,1.552 0.677,1.545 -0.007,0.85 0,0"
       style="fill:#ffffff;fill-opacity:1;fill-rule:nonzero;stroke:#f97316;stroke-opacity:1"
       transform="matrix(0.30280099,0,0,-0.30280099,22.679905,16.129694)"
       clip-path="url(#clipPath63)" />
    <path
       id="path64"
       d="M 0,0 -3.102,-3.009 -6.206,0 -9.309,-3.009 -12.409,0 -15.512,-3.009 -18.616,0 -21.721,-3.009 -24.83,0 -27.94,-3.009"
       style="fill:#ffffff;stroke:#f97316;stroke-width:2;stroke-linecap:butt;stroke-linejoin:miter;stroke-miterlimit:10;stroke-dasharray:none;stroke-opacity:1"
       transform="matrix(0.30280099,0,0,-0.30280099,29.250595,18.907983)"
       clip-path="url(#clipPath65)" />
    <path
       id="path66"
       d="M 0,0 V -22.579"
       style="fill:#ffffff;stroke:#f97316;stroke-width:2;stroke-linecap:butt;stroke-linejoin:miter;stroke-miterlimit:10;stroke-dasharray:none;stroke-opacity:1"
       transform="matrix(0.30280099,0,0,-0.30280099,27.371531,18.907983)"
       clip-path="url(#clipPath67)" />
    <path
       id="path68"
       d="M 0,0 V -22.579"
       style="fill:#ffffff;stroke:#f97316;stroke-width:2;stroke-linecap:butt;stroke-linejoin:miter;stroke-miterlimit:10;stroke-dasharray:none;stroke-opacity:1"
       transform="matrix(0.30280099,0,0,-0.30280099,25.524114,18.907983)"
       clip-path="url(#clipPath69)" />
    <path
       id="path70"
       d="M 0,0 V -18.306"
       style="fill:#ffffff;stroke:#f97316;stroke-width:2;stroke-linecap:butt;stroke-linejoin:miter;stroke-miterlimit:10;stroke-dasharray:none;stroke-opacity:1"
       transform="matrix(0.30280099,0,0,-0.30280099,23.676568,18.907983)"
       clip-path="url(#clipPath71)" />
    <path
       id="path72"
       d="M 0,0 V -12.241"
       style="fill:#ffffff;stroke:#f97316;stroke-width:2;stroke-linecap:butt;stroke-linejoin:miter;stroke-miterlimit:10;stroke-dasharray:none;stroke-opacity:1"
       transform="matrix(0.30280099,0,0,-0.30280099,21.828996,18.907983)"
       clip-path="url(#clipPath73)" />
    <path
       id="path74"
       d="M 0,0 V -6.148"
       style="fill:#ffffff;stroke:#f97316;stroke-width:2;stroke-linecap:butt;stroke-linejoin:miter;stroke-miterlimit:10;stroke-dasharray:none;stroke-opacity:1"
       transform="matrix(0.30280099,0,0,-0.30280099,14.1268,4.3315648)"
       clip-path="url(#clipPath75)" />
    <path
       id="path76"
       d="M 0,0 V -11.773"
       style="fill:#ffffff;stroke:#f97316;stroke-width:2;stroke-linecap:butt;stroke-linejoin:miter;stroke-miterlimit:10;stroke-dasharray:none;stroke-opacity:1"
       transform="matrix(0.30280099,0,0,-0.30280099,15.354689,4.0541943)"
       clip-path="url(#clipPath77)" />
    <path
       id="path78"
       d="M 0,0 V -6.148"
       style="fill:#ffffff;stroke:#f97316;stroke-width:2;stroke-linecap:butt;stroke-linejoin:miter;stroke-miterlimit:10;stroke-dasharray:none;stroke-opacity:1"
       transform="matrix(0.30280099,0,0,-0.30280099,19.454348,4.3315648)"
       clip-path="url(#clipPath79)" />
    <path
       id="path80"
       d="M 0,0 V -11.773"
       style="fill:#ffffff;stroke:#f97316;stroke-width:2;stroke-linecap:butt;stroke-linejoin:miter;stroke-miterlimit:10;stroke-dasharray:none;stroke-opacity:1"
       transform="matrix(0.30280099,0,0,-0.30280099,18.226424,4.0541943)"
       clip-path="url(#clipPath81)" />
    <path
       id="path82"
       d="M 0,0 V -18.205"
       style="fill:#ffffff;stroke:#f97316;stroke-width:2;stroke-linecap:butt;stroke-linejoin:miter;stroke-miterlimit:10;stroke-dasharray:none;stroke-opacity:1"
       transform="matrix(0.30280099,0,0,-0.30280099,16.760047,3.9486107)"
       clip-path="url(#clipPath83)" />
    <path
       id="path84"
       d="M 0,0 H 15"
       style="fill:#ffffff;stroke:#f97316;stroke-width:4;stroke-linecap:butt;stroke-linejoin:miter;stroke-miterlimit:10;stroke-dasharray:none;stroke-opacity:1"
       transform="matrix(0.30280099,0,0,-0.30280099,14.519625,35.108437)"
       clip-path="url(#clipPath85)" />
    <path
       id="path18"
       d="m 0,0 c 0,-0.85 0.689,-1.54 1.54,-1.54 0.851,0 1.54,0.69 1.54,1.54 0,0.851 -0.689,1.54 -1.54,1.54 C 0.689,1.54 0,0.851 0,0"
       style="fill:#3d3d3d;fill-opacity:1;fill-rule:nonzero;stroke:#f97316;stroke-opacity:1"
       transform="matrix(0.30280099,0,0,-0.30280099,19.119744,8.6955644)"
       clip-path="url(#clipPath19)" />
    <text
       xml:space="preserve"
       style="font-style:italic;font-size:29.5864px;line-height:50%;font-family:'Century Gothic';-inkscape-font-specification:'Century Gothic Italic';letter-spacing:0px;word-spacing:-8.53451px;fill:#1e40af;stroke-width:9.67694;stroke-linecap:round;stroke-linejoin:round;stroke-miterlimit:1;fill-opacity:1"
       x="37.262428"
       y="30.837496"
       id="text1"><tspan
         sodipodi:role="line"
         id="tspan1"
         style="fill:#1e40af;stroke-width:9.67694;fill-opacity:1"
         x="37.262428"
         y="30.837496">Atenea</tspan></text>
  </g>
</svg>
